<?xml version="1.0" standalone="no"?><!DOCTYPE svg PUBLIC "-//W3C//DTD SVG 1.1//EN" "http://www.w3.org/Graphics/SVG/1.1/DTD/svg11.dtd"><svg t="1743583611000" class="icon" viewBox="0 0 1024 1024" version="1.1" xmlns="http://www.w3.org/2000/svg" p-id="880" xmlns:xlink="http://www.w3.org/1999/xlink" width="81" height="81"><path d="M969.029792 576.499656c-8.05846 11.703954-23.279995 13.110986-31.594279 6.203735a23.663731 23.663731 0 0 1 0.447692-35.11186c8.186372-11.639998 23.407907-13.110986 31.658235-6.075823 8.37824 6.907251 7.610768 23.279995-0.511648 34.983948z m-69.200425-34.344388c-13.110986-8.37824-16.11692-26.030104-8.634064-41.123727 7.290987-15.157579 23.088127-22.192742 35.367685-15.79714 12.151646 6.395603 15.221535 23.983511 8.761976 41.187684-7.482856 15.221535-23.279995 22.128786-35.495597 15.733183z m-56.409218-28.140653c-14.198239-4.285054-23.535819-21.297358-21.872963-41.315596 3.38967-20.721754 16.500656-33.065268 31.466367-31.338454 14.070327 4.157142 23.407907 21.297358 20.018238 42.083068-1.598901 19.890325-14.709887 32.297795-29.611642 30.570982z m91.968771 105.015802a292.982574 292.982574 0 0 1-4.412966 194.234463c-22.576479 57.240647-53.850977 107.957779-96.637562 127.272501-46.176254 21.10549-87.299981 6.075823-107.382174-16.884392-22.640435-23.855599-37.350322-53.467241-5.756043-108.405472 21.74505-39.844607 20.849666-42.338892 3.773406-86.34064-17.587908-45.536694-33.257136-77.578665-25.582412-117.359316 4.924614-40.739991 52.124165-87.875586 104.823933-84.10218 52.699769 3.837362 107.765911 27.373181 131.173818 91.585036z m-160.593592-118.2547c-16.75648 0.063956-30.251202-17.71582-32.233839-38.693399-1.790769-21.10549 10.552745-39.269003 27.309225-39.269002 16.75648-0.063956 30.251202 17.71582 32.169883 38.693398 1.854725 21.041534-10.424833 39.269003-27.245269 39.269003z m-59.159328 51.804384c-17.332084 7.994504-39.716695-4.02923-50.333396-28.780213-10.360877-24.81494-5.883955-51.164824 10.872526-60.758229 17.332084-7.994504 39.716695 3.965274 50.205483 28.780213 11.895822 24.239335 6.587471 52.699769-10.744613 60.758229zM574.485042 251.411155c-35.175817-15.541315-45.984386-70.671413-21.745051-117.487228 21.169446-48.030979 66.386359-71.183062 101.562176-55.513834 33.896696 18.547249 42.978452 69.264381 21.872963 117.359316-21.42527 48.094935-66.642183 71.247018-101.690088 55.641746zM454.503529 151.319968c-33.768784 0-58.711636-35.175817-54.746362-75.851852 3.965274-40.739991 31.210543-75.020423 65.107239-75.020424 33.768784 0.191868 58.711636 35.303729 54.810318 75.979764-3.965274 40.676035-31.210543 75.020423-65.171195 74.892512z m152.535132 214.444569c15.093623 76.747236-16.11692 138.912498-51.996253 226.788083-34.536256 84.997564-36.454937 89.794266 7.482856 166.733371 63.828118 106.294922 34.088564 163.535569-11.512086 209.711823-40.484167 44.257573-123.818875 73.293611-217.066766 32.617575-86.340641-37.734058-149.785023-135.522828-195.193804-246.230716-45.280869-110.643932-53.019549-250.259946-9.081757-375.741678 47.263506-123.882831 158.738867-169.48348 265.161702-176.774467 106.742614-7.099119 202.101056 84.10218 212.206108 162.896009z m-290.999938-188.926113c-30.379114 3.261758-56.856911-20.593842-60.24658-59.28724-6.715383-40.100431 12.151646-73.101743 40.739991-81.352071 30.315158-3.325714 56.728999 20.593842 63.572294 60.758229 3.261758 38.565486-15.605271 71.630754-44.065705 79.881082z m-114.417338 54.426581c-24.687028 12.40747-56.345263-1.151209-71.374929-30.44307-13.36681-33.19318-7.290987-67.153832 17.459996-79.625258 24.623072-12.40747 56.409219 1.151209 71.438886 30.443071 15.029667 29.419774 8.825932 63.444382-17.523953 79.625257zM125.833489 309.547186c-16.820436 13.558678-47.647243 10.744613-64.083942-11.831865-16.4367-22.512523-17.907688-54.29867-1.087252-67.729436 16.820436-13.558678 47.647243-10.744613 64.083942 11.831865 22.832303 20.14615 19.954281 49.94966 1.087252 67.729436z" fill="#58cc02" p-id="881"></path></svg>