<?xml version="1.0" standalone="no"?><!DOCTYPE svg PUBLIC "-//W3C//DTD SVG 1.1//EN" "http://www.w3.org/Graphics/SVG/1.1/DTD/svg11.dtd"><svg t="1743583638711" class="icon" viewBox="0 0 1024 1024" version="1.1" xmlns="http://www.w3.org/2000/svg" p-id="1069" xmlns:xlink="http://www.w3.org/1999/xlink" width="81" height="81"><path d="M819.2 0H204.8C129.706667 0 68.266667 61.44 68.266667 136.533333v750.933334c0 75.093333 61.44 136.533333 136.533333 136.533333h614.4c75.093333 0 136.533333-61.44 136.533333-136.533333V136.533333c0-75.093333-61.44-136.533333-136.533333-136.533333zM640 230.4H768c18.773333 0 34.133333 15.36 34.133333 34.133333s-15.36 34.133333-34.133333 34.133334h-128c-18.773333 0-34.133333-15.36-34.133333-34.133334s15.36-34.133333 34.133333-34.133333z m-63.146667 157.013333H768c18.773333 0 34.133333 15.36 34.133333 34.133334s-15.36 34.133333-34.133333 34.133333H575.146667c-18.773333 0-34.133333-15.36-34.133334-34.133333s15.36-34.133333 35.84-34.133334zM221.866667 261.12c0-35.84 29.013333-66.56 66.56-66.56h128c35.84 0 66.56 29.013333 66.56 66.56v128c0 35.84-29.013333 66.56-66.56 66.56h-128c-35.84 0-66.56-29.013333-66.56-66.56v-128zM803.84 785.066667h-131.413333c-5.12 0-11.946667-1.706667-17.066667-5.12l-3.413333-1.706667-34.133334-25.6-76.8 128c-6.826667 10.24-17.066667 17.066667-29.013333 17.066667s-22.186667-5.12-29.013333-15.36l-1.706667-3.413334-90.453333-187.733333-42.666667 78.506667c-5.12 10.24-15.36 17.066667-25.6 17.066666h-98.986667c-18.773333 0-34.133333-15.36-34.133333-34.133333 0-17.066667 13.653333-32.426667 30.72-34.133333H298.666667l64.853333-119.466667c5.12-10.24 17.066667-17.066667 29.013333-17.066667s23.893333 5.12 30.72 15.36l1.706667 3.413334 90.453333 191.146666 63.146667-105.813333c10.24-15.36 30.72-20.48 46.08-11.946667l3.413333 1.706667 56.32 40.96h116.053334c17.066667 0 32.426667 13.653333 34.133333 30.72v3.413333c0 17.066667-13.653333 30.72-30.72 34.133334z" fill="#49C0F8" p-id="1070"></path></svg>